<svg width="232" height="40" viewBox="0 0 232 40" fill="none" xmlns="http://www.w3.org/2000/svg">
<path d="M40 20C40 25.5228 37.7614 30.5228 34.1421 34.1421C30.5228 37.7614 25.5228 40 20 40C14.4772 40 9.47715 37.7614 5.85786 34.1421C2.23858 30.5228 0 25.5228 0 20C0 14.4772 2.23858 9.47715 5.85786 5.85786C9.47715 2.23858 14.4772 0 20 0C25.5228 0 30.5228 2.23858 34.1421 5.85786C37.7614 9.47715 40 14.4772 40 20Z" fill="#4D5AE5"/>
<g clip-path="url(#clip0_490810_1128)">
<path d="M27.9843 16.7039C27.9468 15.8538 27.8093 15.2693 27.6124 14.7629C27.4092 14.2253 27.0967 13.744 26.6872 13.3439C26.2871 12.9376 25.8026 12.6218 25.2713 12.4218C24.7619 12.2249 24.1805 12.0874 23.3303 12.0499C22.4738 12.0093 22.2019 11.9999 20.0296 11.9999C17.8573 11.9999 17.5854 12.0093 16.7321 12.0468C15.882 12.0842 15.2975 12.2218 14.7912 12.4187C14.2535 12.6218 13.7722 12.9344 13.3721 13.3439C12.9658 13.744 12.6501 14.2285 12.45 14.7598C12.2531 15.2693 12.1156 15.8506 12.0781 16.7007C12.0375 17.5572 12.0281 17.8291 12.0281 20.0014C12.0281 22.1737 12.0375 22.4456 12.075 23.299C12.1124 24.1491 12.25 24.7336 12.447 25.24C12.6501 25.7776 12.9658 26.2589 13.3721 26.659C13.7722 27.0653 14.2567 27.3811 14.788 27.581C15.2975 27.778 15.8788 27.9155 16.7291 27.9529C17.5823 27.9906 17.8543 27.9998 20.0266 27.9998C22.1989 27.9998 22.4708 27.9906 23.3241 27.9529C24.1742 27.9155 24.7587 27.778 25.265 27.581C26.3403 27.1653 27.1904 26.3152 27.6062 25.24C27.803 24.7305 27.9406 24.1491 27.9781 23.299C28.0156 22.4456 28.025 22.1737 28.025 20.0014C28.025 17.8291 28.0218 17.5572 27.9843 16.7039ZM26.5435 23.2364C26.509 24.0179 26.3778 24.4398 26.2684 24.7211C25.9995 25.4181 25.4463 25.9714 24.7493 26.2402C24.468 26.3496 24.043 26.4809 23.2646 26.5152C22.4207 26.5528 22.1676 26.562 20.0328 26.562C17.898 26.562 17.6417 26.5528 16.8009 26.5152C16.0195 26.4809 15.5975 26.3496 15.3162 26.2402C14.9693 26.112 14.6536 25.9088 14.3973 25.6432C14.1316 25.3837 13.9285 25.0712 13.8003 24.7243C13.6909 24.443 13.5596 24.0179 13.5253 23.2396C13.4877 22.3957 13.4784 22.1425 13.4784 20.0077C13.4784 17.8729 13.4877 17.6166 13.5253 16.7758C13.5596 15.9944 13.6909 15.5725 13.8003 15.2912C13.9285 14.9442 14.1316 14.6286 14.4005 14.3722C14.6598 14.1065 14.9724 13.9033 15.3194 13.7752C15.6007 13.6659 16.0258 13.5346 16.804 13.5002C17.6479 13.4627 17.9012 13.4533 20.0359 13.4533C22.1738 13.4533 22.4269 13.4627 23.2678 13.5002C24.0492 13.5346 24.4712 13.6659 24.7525 13.7752C25.0993 13.9033 25.4151 14.1065 25.6714 14.3722C25.937 14.6316 26.1402 14.9442 26.2684 15.2912C26.3778 15.5725 26.509 15.9975 26.5435 16.7758C26.581 17.6198 26.5904 17.8729 26.5904 20.0077C26.5904 22.1425 26.581 22.3925 26.5435 23.2364Z" fill="#F4F4FD"/>
<path d="M20.0297 15.8912C17.7606 15.8912 15.9195 17.7322 15.9195 20.0014C15.9195 22.2707 17.7606 24.1116 20.0297 24.1116C22.2989 24.1116 24.1398 22.2707 24.1398 20.0014C24.1398 17.7322 22.2989 15.8912 20.0297 15.8912ZM20.0297 22.6676C18.5576 22.6676 17.3635 21.4736 17.3635 20.0014C17.3635 18.5292 18.5576 17.3352 20.0297 17.3352C21.5019 17.3352 22.6958 18.5292 22.6958 20.0014C22.6958 21.4736 21.5019 22.6676 20.0297 22.6676Z" fill="#F4F4FD"/>
<path d="M25.262 15.7287C25.262 16.2586 24.8324 16.6882 24.3024 16.6882C23.7725 16.6882 23.3428 16.2586 23.3428 15.7287C23.3428 15.1987 23.7725 14.7692 24.3024 14.7692C24.8324 14.7692 25.262 15.1987 25.262 15.7287Z" fill="#F4F4FD"/>
</g>
<path d="M104 20C104 25.5228 101.761 30.5228 98.1421 34.1421C94.5228 37.7614 89.5228 40 84 40C78.4772 40 73.4772 37.7614 69.8579 34.1421C66.2386 30.5228 64 25.5228 64 20C64 14.4772 66.2386 9.47715 69.8579 5.85786C73.4772 2.23858 78.4772 0 84 0C89.5228 0 94.5228 2.23858 98.1421 5.85786C101.761 9.47715 104 14.4772 104 20Z" fill="#4D5AE5"/>
<g clip-path="url(#clip1_490810_1128)">
<path d="M92 15.0389C91.405 15.2999 90.771 15.4729 90.11 15.5569C90.79 15.1509 91.309 14.5129 91.553 13.7439C90.919 14.1219 90.219 14.3889 89.473 14.5379C88.871 13.8969 88.013 13.4999 87.077 13.4999C85.261 13.4999 83.799 14.9739 83.799 16.7809C83.799 17.0409 83.821 17.2909 83.875 17.5289C81.148 17.3959 78.735 16.0889 77.114 14.0979C76.831 14.5889 76.665 15.1509 76.665 15.7559C76.665 16.8919 77.25 17.8989 78.122 18.4819C77.595 18.4719 77.078 18.3189 76.64 18.0779C76.64 18.0879 76.64 18.1009 76.64 18.1139C76.64 19.7079 77.777 21.0319 79.268 21.3369C79.001 21.4099 78.71 21.4449 78.408 21.4449C78.198 21.4449 77.986 21.4329 77.787 21.3889C78.212 22.6879 79.418 23.6429 80.852 23.6739C79.736 24.5469 78.319 25.0729 76.785 25.0729C76.516 25.0729 76.258 25.0609 76 25.0279C77.453 25.9649 79.175 26.4999 81.032 26.4999C87.068 26.4999 90.368 21.4999 90.368 17.1659C90.368 17.0209 90.363 16.8809 90.356 16.7419C91.007 16.2799 91.554 15.7029 92 15.0389Z" fill="#F4F4FD"/>
</g>
<path d="M168 20C168 25.5228 165.761 30.5228 162.142 34.1421C158.523 37.7614 153.523 40 148 40C142.477 40 137.477 37.7614 133.858 34.1421C130.239 30.5228 128 25.5228 128 20C128 14.4772 130.239 9.47715 133.858 5.85786C137.477 2.23858 142.477 0 148 0C153.523 0 158.523 2.23858 162.142 5.85786C165.761 9.47715 168 14.4772 168 20Z" fill="#4D5AE5"/>
<g clip-path="url(#clip2_490810_1128)">
<path d="M150.665 14.6565H152.125V12.1125C151.873 12.0779 151.007 11.9999 149.997 11.9999C147.891 11.9999 146.449 13.3245 146.449 15.7592V17.9999H144.125V20.8439H146.449V27.9999H149.298V20.8445H151.528L151.882 18.0005H149.297V16.0412C149.298 15.2192 149.519 14.6565 150.665 14.6565Z" fill="#F4F4FD"/>
</g>
<path d="M232 20C232 25.5228 229.761 30.5228 226.142 34.1421C222.523 37.7614 217.523 40 212 40C206.477 40 201.477 37.7614 197.858 34.1421C194.239 30.5228 192 25.5228 192 20C192 14.4772 194.239 9.47715 197.858 5.85786C201.477 2.23858 206.477 0 212 0C217.523 0 222.523 2.23858 226.142 5.85786C229.761 9.47715 232 14.4772 232 20Z" fill="#4D5AE5"/>
<g clip-path="url(#clip3_490810_1128)">
<path d="M219.996 27.9999V27.9992H220V22.1312C220 19.2605 219.382 17.0492 216.026 17.0492C214.413 17.0492 213.33 17.9345 212.888 18.7739H212.841V17.3172H209.659V27.9992H212.973V22.7099C212.973 21.3172 213.237 19.9705 214.961 19.9705C216.661 19.9705 216.686 21.5599 216.686 22.7992V27.9999H219.996Z" fill="#F4F4FD"/>
<path d="M204.264 17.3179H207.581V27.9999H204.264V17.3179Z" fill="#F4F4FD"/>
<path d="M205.921 11.9999C204.861 11.9999 204 12.8605 204 13.9212C204 14.9819 204.861 15.8605 205.921 15.8605C206.982 15.8605 207.843 14.9819 207.843 13.9212C207.842 12.8605 206.981 11.9999 205.921 11.9999V11.9999Z" fill="#F4F4FD"/>
</g>
<defs>
<clipPath id="clip0_490810_1128">
<rect width="16" height="16" fill="white" transform="translate(12 11.9999)"/>
</clipPath>
<clipPath id="clip1_490810_1128">
<rect width="16" height="16" fill="white" transform="translate(76 11.9999)"/>
</clipPath>
<clipPath id="clip2_490810_1128">
<rect width="16" height="16" fill="white" transform="translate(140 11.9999)"/>
</clipPath>
<clipPath id="clip3_490810_1128">
<rect width="16" height="16" fill="white" transform="translate(204 11.9999)"/>
</clipPath>
</defs>
</svg>
